<?xml version="1.0" encoding="UTF-8" standalone="no"?>
<svg
   xmlns:dc="http://purl.org/dc/elements/1.1/"
   xmlns:cc="http://creativecommons.org/ns#"
   xmlns:rdf="http://www.w3.org/1999/02/22-rdf-syntax-ns#"
   xmlns:svg="http://www.w3.org/2000/svg"
   xmlns="http://www.w3.org/2000/svg"
   xmlns:sodipodi="http://sodipodi.sourceforge.net/DTD/sodipodi-0.dtd"
   xmlns:inkscape="http://www.inkscape.org/namespaces/inkscape"
   width="1024.0px"
   height="1024.0px"
   viewBox="0 0 1024.0 1024.0"
   version="1.1"
   id="SVGRoot"
   sodipodi:docname="box-logo.svg"
   inkscape:version="1.0.1 (3bc2e813f5, 2020-09-07)">
  <defs
     id="defs13" />
  <sodipodi:namedview
     id="base"
     pagecolor="#ffffff"
     bordercolor="#666666"
     borderopacity="1.0"
     inkscape:pageopacity="0.0"
     inkscape:pageshadow="2"
     inkscape:zoom="0.35"
     inkscape:cx="-105.71429"
     inkscape:cy="560"
     inkscape:document-units="px"
     inkscape:current-layer="layer1"
     inkscape:document-rotation="0"
     showgrid="true"
     inkscape:window-width="2256"
     inkscape:window-height="1424"
     inkscape:window-x="-11"
     inkscape:window-y="-11"
     inkscape:window-maximized="1">
    <inkscape:grid
       type="xygrid"
       id="grid22" />
  </sodipodi:namedview>
  <metadata
     id="metadata16">
    <rdf:RDF>
      <cc:Work
         rdf:about="">
        <dc:format>image/svg+xml</dc:format>
        <dc:type
           rdf:resource="http://purl.org/dc/dcmitype/StillImage" />
        <dc:title></dc:title>
      </cc:Work>
    </rdf:RDF>
  </metadata>
  <g
     inkscape:label="Layer 1"
     inkscape:groupmode="layer"
     id="layer1">
    <g
       id="g965"
       transform="matrix(5.4712171,0,0,5.4712171,-33.949312,-345.20489)"
       inkscape:export-xdpi="96"
       inkscape:export-ydpi="96">
      <path
         inkscape:export-ydpi="96"
         inkscape:export-xdpi="96"
         style="stroke-width:0.163844"
         fill="currentColor"
         d="m 129.87333,101.28386 -1.34352,2.34297 c -0.49153,0.86837 -1.54013,1.22883 -2.47404,0.88476 -1.93336,-0.72092 -3.70288,-1.75313 -5.2594,-3.0475 -0.75368,-0.62261 -0.95029,-1.72037 -0.45876,-2.57236 l 1.34352,-2.34296 c -1.13052,-1.31076 -2.01528,-2.83451 -2.60512,-4.48933 h -2.70342 c -0.98307,0 -1.83506,-0.70453 -1.9989,-1.68759 -0.32769,-1.96613 -0.34407,-4.03057 0,-6.07862 0.16384,-0.98306 1.01583,-1.70398 1.9989,-1.70398 h 2.70342 c 0.58984,-1.65482 1.4746,-3.17857 2.60512,-4.48932 l -1.34352,-2.342979 c -0.49153,-0.851986 -0.3113,-1.949743 0.45876,-2.572346 1.55652,-1.294369 3.34242,-2.32659 5.2594,-3.047499 0.93391,-0.344076 1.98251,0.01641 2.47404,0.884758 l 1.34352,2.342968 c 1.72037,-0.311304 3.4735,-0.311304 5.19386,0 l 1.34352,-2.342968 c 0.49154,-0.868379 1.54014,-1.228834 2.47405,-0.884758 1.93336,0.720909 3.70287,1.75313 5.25939,3.047499 0.75369,0.622603 0.9503,1.72036 0.45877,2.572346 l -1.34353,2.342979 c 1.13053,1.31075 2.01529,2.8345 2.60513,4.48932 h 2.70342 c 0.98306,0 1.83506,0.70453 1.9989,1.6876 0.32769,1.96613 0.34407,4.03056 0,6.07861 -0.16384,0.98306 -1.01584,1.70398 -1.9989,1.70398 h -2.70342 c -0.58984,1.65482 -1.4746,3.17857 -2.60513,4.48933 l 1.34353,2.34296 c 0.49153,0.85199 0.3113,1.94975 -0.45877,2.57236 -1.55652,1.29437 -3.34242,2.32658 -5.25939,3.0475 -0.93391,0.34407 -1.98251,-0.0164 -2.47405,-0.88476 l -1.34352,-2.34297 c -1.70398,0.3113 -3.47349,0.3113 -5.19386,0 z m -1.72036,-9.63403 c 6.308,4.84978 13.50075,-2.34297 8.65097,-8.65097 -6.308,-4.86617 -13.50075,2.34297 -8.65097,8.65097 z m -18.89122,25.2156 5.52155,2.75258 c 1.65482,0.9503 2.37574,2.96557 1.72036,4.76786 -1.45821,3.96502 -4.32549,7.60236 -6.97976,10.78094 -1.21244,1.45821 -3.30964,1.81867 -4.96447,0.86837 l -4.767856,-2.75258 c -2.6215,2.24466 -5.669004,4.03056 -8.995044,5.19386 v 5.50515 c 0,1.9006 -1.3599,3.53903 -3.22773,3.86672 -4.03056,0.68815 -8.257736,0.72092 -12.435756,0 -1.884208,-0.32769 -3.276883,-1.94974 -3.276883,-3.86672 v -5.50515 c -3.326033,-1.17968 -6.373533,-2.9492 -8.995035,-5.19386 l -4.767865,2.73619 c -1.638439,0.9503 -3.75203,0.58984 -4.964472,-0.86837 -2.65428,-3.17857 -5.45601,-6.81591 -6.914221,-10.76455 -0.65538,-1.7859 0.06554,-3.80118 1.72036,-4.76786 l 5.45601,-2.75258 c -0.638995,-3.42434 -0.638995,-6.94699 0,-10.38772 l -5.45601,-2.76896 c -1.654824,-0.95029 -2.392119,-2.96558 -1.72036,-4.75148 1.458211,-3.96502 4.259941,-7.60236 6.914221,-10.78094 1.212442,-1.45821 3.309648,-1.81866 4.964472,-0.86837 l 4.767865,2.75258 c 2.621502,-2.24466 5.669002,-4.03056 8.995035,-5.19385 v -5.52155 c 0,-1.88421 1.343519,-3.522647 3.211341,-3.850337 4.030564,-0.688145 8.274128,-0.720916 12.452148,-0.01641 1.88421,0.32769 3.27688,1.949747 3.27688,3.866727 v 5.50516 c 3.32604,1.17967 6.373544,2.94919 8.995044,5.19385 l 4.767856,-2.75258 c 1.63844,-0.95029 3.75203,-0.58984 4.96447,0.86837 2.65427,3.17858 5.43962,6.81592 6.89784,10.78095 0.65538,1.78589 0.0164,3.80118 -1.63844,4.76785 l -5.52155,2.75258 c 0.639,3.44073 0.639,6.96338 0,10.4041 z m -19.26805,3.45711 c 9.699564,-12.616 -4.70233,-27.01789 -17.318317,-17.31832 -9.699572,12.61599 4.702324,27.01788 17.318317,17.31832 z m 39.87963,29.9343 -1.34352,2.34297 c -0.49153,0.86838 -1.54013,1.22883 -2.47404,0.88476 -1.93336,-0.72091 -3.70288,-1.75314 -5.2594,-3.0475 -0.75368,-0.62261 -0.95029,-1.72036 -0.45876,-2.57235 l 1.34352,-2.34297 c -1.13052,-1.31075 -2.01528,-2.8345 -2.60512,-4.48933 h -2.70342 c -0.98307,0 -1.83506,-0.70453 -1.9989,-1.68759 -0.32769,-1.96613 -0.34407,-4.03057 0,-6.07862 0.16384,-0.98306 1.01583,-1.70397 1.9989,-1.70397 h 2.70342 c 0.58984,-1.65482 1.4746,-3.17858 2.60512,-4.48933 l -1.34352,-2.34297 c -0.49153,-0.85199 -0.3113,-1.94974 0.45876,-2.57235 1.55652,-1.29436 3.34242,-2.32659 5.2594,-3.0475 0.93391,-0.34407 1.98251,0.0164 2.47404,0.88476 l 1.34352,2.34297 c 1.72037,-0.3113 3.4735,-0.3113 5.19386,0 l 1.34352,-2.34297 c 0.49154,-0.86838 1.54014,-1.22883 2.47405,-0.88476 1.93336,0.72091 3.70287,1.75314 5.25939,3.0475 0.75369,0.62261 0.9503,1.72036 0.45877,2.57235 l -1.34353,2.34297 c 1.13053,1.31075 2.01529,2.83451 2.60513,4.48933 h 2.70342 c 0.98306,0 1.83506,0.70453 1.9989,1.68759 0.32769,1.96613 0.34407,4.03056 0,6.07862 -0.16384,0.98306 -1.01584,1.70397 -1.9989,1.70397 h -2.70342 c -0.58984,1.65483 -1.4746,3.17858 -2.60513,4.48933 l 1.34353,2.34297 c 0.49153,0.85199 0.3113,1.94974 -0.45877,2.57235 -1.55652,1.29436 -3.34242,2.32659 -5.25939,3.0475 -0.93391,0.34407 -1.98251,-0.0164 -2.47405,-0.88476 l -1.34352,-2.34297 c -1.70398,0.3113 -3.47349,0.3113 -5.19386,0 z m -1.72036,-9.65041 c 6.308,4.84978 13.50075,-2.34297 8.65097,-8.65096 -6.308,-4.84979 -13.50075,2.34297 -8.65097,8.65096 z"
         id="path884" />
      <path
         inkscape:export-ydpi="96"
         inkscape:export-xdpi="96"
         style="fill:#dba77c;fill-opacity:1;stroke-width:0.264583"
         fill="currentColor"
         d="m 127.75803,184.0826 c -4.47145,0 -8.67833,-2.38125 -10.95375,-6.19125 l -17.012706,-28.20458 -16.98625,28.20458 c -2.301875,3.83646 -6.50875,6.21771 -10.980209,6.21771 -1.190625,0 -2.38125,-0.15875 -3.518958,-0.50271 L 32.05824,173.23469 v 47.09583 c 0,3.88937 2.645834,7.27604 6.402917,8.20208 l 57.202917,14.31396 c 2.69875,0.66146 5.529796,0.66146 8.202086,0 l 57.25583,-14.31396 c 3.75709,-0.9525 6.40292,-4.33916 6.40292,-8.20208 v -47.09583 l -36.24792,10.34521 c -1.13771,0.34395 -2.32833,0.5027 -3.51896,0.5027 z m 56.25042,-29.68625 -13.62604,-27.19916 c -0.82021,-1.64042 -2.59292,-2.59292 -4.41854,-2.3548 l -66.172296,8.44021 24.262296,40.24313 c 1.00541,1.66687 3.01625,2.46062 4.89479,1.93146 l 52.36104,-14.94896 c 2.61938,-0.76729 3.88938,-3.67771 2.69875,-6.11188 z M 29.20074,127.19719 15.574699,154.39635 c -1.217083,2.43417 0.07937,5.34459 2.672291,6.08542 l 52.361042,14.94896 c 1.878542,0.52917 3.889375,-0.26458 4.894792,-1.93146 l 24.28875,-40.21667 -66.19875,-8.44021 c -1.825625,-0.21166 -3.571875,0.71438 -4.392084,2.3548 z"
         id="path833" />
    </g>
  </g>
</svg>
